<svg xmlns="http://www.w3.org/2000/svg" viewBox="0 0 327.13 36.03"><defs><style>.cls-1{fill:#4374ba;}.cls-2{fill:#27a74a;}.cls-3{fill:#fec111;}</style></defs><g id="Layer_2" data-name="Layer 2"><g id="Layer_1-2" data-name="Layer 1"><path class="cls-1" d="M13.46,34.34a3.86,3.86,0,0,1-2.39-.7,4.8,4.8,0,0,1-1.48-2.21L1.83,9.81a3.33,3.33,0,0,1,.26-3.06,3.36,3.36,0,0,1,3-1.28,3.51,3.51,0,0,1,2.35.72A4.83,4.83,0,0,1,8.76,8.38l5.93,17.8H12.86l6.33-17.8a5.13,5.13,0,0,1,1.39-2.21,3.29,3.29,0,0,1,2.15-.7,3.1,3.1,0,0,1,2.11.7,5.07,5.07,0,0,1,1.32,2.25l5.93,17.76H30.58l6.05-17.8a4.9,4.9,0,0,1,1.29-2.19,3.34,3.34,0,0,1,2.29-.72,3,3,0,0,1,2.67,1.28A3.26,3.26,0,0,1,43,9.81L35.27,31.47a4.78,4.78,0,0,1-1.45,2.17,3.86,3.86,0,0,1-2.41.7,3.81,3.81,0,0,1-2.35-.7,4.46,4.46,0,0,1-1.43-2.21L22,15.67h1l-5.73,15.8a5,5,0,0,1-1.41,2.17A3.78,3.78,0,0,1,13.46,34.34Z" transform="translate(-1.59 -5.47)"/><path class="cls-1" d="M55,34.42a14,14,0,0,1-6.19-1.28,9.3,9.3,0,0,1-4-3.58,10.26,10.26,0,0,1-1.4-5.41,10.48,10.48,0,0,1,1.34-5.34,9.57,9.57,0,0,1,3.66-3.62,11.37,11.37,0,0,1,9.3-.6,8.38,8.38,0,0,1,3,2.05,9.09,9.09,0,0,1,1.93,3.21,12.33,12.33,0,0,1,.68,4.22,1.48,1.48,0,0,1-.44,1.15,1.93,1.93,0,0,1-1.35.4H49.33V22.23h8.79l-.59.52a6.34,6.34,0,0,0-.4-2.41A2.89,2.89,0,0,0,56,19,3.84,3.84,0,0,0,54,18.49a3.91,3.91,0,0,0-2.15.58,3.51,3.51,0,0,0-1.37,1.69A7.46,7.46,0,0,0,50,23.55v.32c0,1.91.42,3.26,1.26,4.06a5.48,5.48,0,0,0,3.88,1.19,11.16,11.16,0,0,0,2-.2,11.75,11.75,0,0,0,2.17-.59,2.54,2.54,0,0,1,1.79-.14,2.23,2.23,0,0,1,1.17.85,2.77,2.77,0,0,1,.48,1.42A2.59,2.59,0,0,1,62.44,32a2.63,2.63,0,0,1-1.37,1.11,13.45,13.45,0,0,1-2.93,1A15.29,15.29,0,0,1,55,34.42Z" transform="translate(-1.59 -5.47)"/><path class="cls-1" d="M79.34,34.42a7.51,7.51,0,0,1-4-1.12A5.25,5.25,0,0,1,73,30.4l.44-1.64v2a3.69,3.69,0,0,1-.89,2.65,3.42,3.42,0,0,1-2.57.94,3.47,3.47,0,0,1-2.61-.94,3.65,3.65,0,0,1-.89-2.65V9.06a3.66,3.66,0,0,1,.89-2.65A3.52,3.52,0,0,1,70,5.47a3.57,3.57,0,0,1,2.61.94,3.6,3.6,0,0,1,.93,2.65v8.56H73a5.46,5.46,0,0,1,2.39-2.69,7.52,7.52,0,0,1,3.94-1.06,7.9,7.9,0,0,1,4.46,1.26,8.47,8.47,0,0,1,3,3.52,12.57,12.57,0,0,1,1.09,5.5,12.92,12.92,0,0,1-1.07,5.45,8.24,8.24,0,0,1-3,3.56A8,8,0,0,1,79.34,34.42Zm-2.23-5.3a3.47,3.47,0,0,0,1.89-.5A3.34,3.34,0,0,0,80.3,27a7.29,7.29,0,0,0,.48-2.86,5.79,5.79,0,0,0-1-3.85,3.35,3.35,0,0,0-2.63-1.17,3.6,3.6,0,0,0-2,.52,3.31,3.31,0,0,0-1.29,1.61,7.5,7.5,0,0,0-.46,2.89,5.7,5.7,0,0,0,1,3.8A3.39,3.39,0,0,0,77.11,29.12Z" transform="translate(-1.59 -5.47)"/><path class="cls-2" d="M95.35,34.34a3.66,3.66,0,0,1-2.73-1,3.86,3.86,0,0,1-1-2.83V9.69a3.85,3.85,0,0,1,1-2.84,3.86,3.86,0,0,1,2.85-1h13.29a2.84,2.84,0,0,1,2.11.72,2.8,2.8,0,0,1,.72,2.07,2.92,2.92,0,0,1-.72,2.13,2.8,2.8,0,0,1-2.11.73H99v5.66h8.88a2.9,2.9,0,0,1,2.13.71,2.88,2.88,0,0,1,.69,2.07,2.91,2.91,0,0,1-.69,2.11,2.86,2.86,0,0,1-2.13.72H99v7.72Q99,34.34,95.35,34.34Z" transform="translate(-1.59 -5.47)"/><path class="cls-2" d="M123.45,34.42a12.46,12.46,0,0,1-5.69-1.24A9,9,0,0,1,114,29.62a10.72,10.72,0,0,1-1.36-5.47,11.5,11.5,0,0,1,.76-4.28,9.06,9.06,0,0,1,2.19-3.25A9.62,9.62,0,0,1,119,14.57a13.49,13.49,0,0,1,4.45-.7,12.47,12.47,0,0,1,5.7,1.24,8.87,8.87,0,0,1,3.76,3.54,10.8,10.8,0,0,1,1.33,5.5,11.3,11.3,0,0,1-.75,4.25,9.18,9.18,0,0,1-5.62,5.32A13.39,13.39,0,0,1,123.45,34.42Zm0-5.3a3.47,3.47,0,0,0,1.89-.5,3.34,3.34,0,0,0,1.3-1.61,7.29,7.29,0,0,0,.48-2.86,5.79,5.79,0,0,0-1-3.85,3.35,3.35,0,0,0-2.63-1.17,3.53,3.53,0,0,0-1.91.52,3.45,3.45,0,0,0-1.31,1.61,7.28,7.28,0,0,0-.48,2.89,5.7,5.7,0,0,0,1,3.8A3.39,3.39,0,0,0,123.45,29.12Z" transform="translate(-1.59 -5.47)"/><path class="cls-2" d="M141.13,34.34a3.67,3.67,0,0,1-2.69-.94,3.58,3.58,0,0,1-.93-2.65V17.54a3.71,3.71,0,0,1,.89-2.65A3.42,3.42,0,0,1,141,14a3.36,3.36,0,0,1,2.53.94,3.66,3.66,0,0,1,.89,2.65v1.63H144a6.07,6.07,0,0,1,2.05-3.8,6.44,6.44,0,0,1,4.12-1.5,2.16,2.16,0,0,1,1.73.6,3.69,3.69,0,0,1,.62,2.31,3.71,3.71,0,0,1-.6,2.25,3.1,3.1,0,0,1-2.23,1l-1,.08a5,5,0,0,0-3.06,1.18,3.83,3.83,0,0,0-1,2.88v6.57a3.69,3.69,0,0,1-.89,2.65A3.52,3.52,0,0,1,141.13,34.34Z" transform="translate(-1.59 -5.47)"/><path class="cls-3" d="M159,33.94a3.43,3.43,0,0,1-3.82-3.82V9.69a3.85,3.85,0,0,1,1-2.84,3.85,3.85,0,0,1,2.84-1h13.54a2.87,2.87,0,0,1,2.09.72,2.77,2.77,0,0,1,.74,2.07,2.89,2.89,0,0,1-.74,2.13,2.83,2.83,0,0,1-2.09.73H162.19v5.34h9.48a2.87,2.87,0,0,1,2.11.72,2.88,2.88,0,0,1,.71,2.11,2.91,2.91,0,0,1-.71,2.09,2.83,2.83,0,0,1-2.11.73h-9.48v5.78h10.39a3,3,0,0,1,2.09,4.93,2.87,2.87,0,0,1-2.09.72Z" transform="translate(-1.59 -5.47)"/><path class="cls-3" d="M187.63,34.34a4,4,0,0,1-2.37-.72,4.82,4.82,0,0,1-1.61-2.11l-5.65-13a4.07,4.07,0,0,1-.36-2.25,2.47,2.47,0,0,1,1-1.65A3.93,3.93,0,0,1,181,14a3.26,3.26,0,0,1,2,.6,5.15,5.15,0,0,1,1.41,2.27l4,10.35h-1.35l4.22-10.39a5.27,5.27,0,0,1,1.43-2.21A3.5,3.5,0,0,1,195,14a2.86,2.86,0,0,1,1.93.64,2.66,2.66,0,0,1,.9,1.65,4,4,0,0,1-.4,2.25l-5.81,13.06A4.75,4.75,0,0,1,190,33.64,4.11,4.11,0,0,1,187.63,34.34Z" transform="translate(-1.59 -5.47)"/><path class="cls-3" d="M210.64,34.42a14,14,0,0,1-6.19-1.28,9.3,9.3,0,0,1-4-3.58,10.26,10.26,0,0,1-1.4-5.41,10.48,10.48,0,0,1,1.34-5.34,9.57,9.57,0,0,1,3.66-3.62,11.37,11.37,0,0,1,9.3-.6,8.38,8.38,0,0,1,3,2.05,9.09,9.09,0,0,1,1.93,3.21,12.33,12.33,0,0,1,.68,4.22,1.48,1.48,0,0,1-.44,1.15,1.93,1.93,0,0,1-1.35.4H205V22.23h8.8l-.6.52a6.34,6.34,0,0,0-.4-2.41A2.89,2.89,0,0,0,211.62,19a3.84,3.84,0,0,0-1.94-.46,3.91,3.91,0,0,0-2.15.58,3.51,3.51,0,0,0-1.37,1.69,7.46,7.46,0,0,0-.46,2.79v.32c0,1.91.42,3.26,1.26,4.06a5.48,5.48,0,0,0,3.88,1.19,11.16,11.16,0,0,0,2-.2,11.75,11.75,0,0,0,2.17-.59,2.54,2.54,0,0,1,1.79-.14A2.23,2.23,0,0,1,218,29a2.77,2.77,0,0,1,.48,1.42A2.59,2.59,0,0,1,218.1,32a2.63,2.63,0,0,1-1.37,1.11,13.45,13.45,0,0,1-2.93,1A15.29,15.29,0,0,1,210.64,34.42Z" transform="translate(-1.59 -5.47)"/><path class="cls-3" d="M225.73,34.34A3.65,3.65,0,0,1,223,33.4a3.58,3.58,0,0,1-.93-2.65V17.54a3.66,3.66,0,0,1,.89-2.65,3.41,3.41,0,0,1,2.57-.94,3.36,3.36,0,0,1,2.53.94,3.71,3.71,0,0,1,.89,2.65v1.63h-.4a6.13,6.13,0,0,1,2.06-3.8,6.44,6.44,0,0,1,4.12-1.5,2.16,2.16,0,0,1,1.73.6,3.64,3.64,0,0,1,.61,2.31,3.71,3.71,0,0,1-.59,2.25,3.1,3.1,0,0,1-2.23,1l-1,.08a5,5,0,0,0-3.06,1.18,3.83,3.83,0,0,0-1,2.88v6.57a3.69,3.69,0,0,1-.89,2.65A3.52,3.52,0,0,1,225.73,34.34Z" transform="translate(-1.59 -5.47)"/><path class="cls-3" d="M246.19,41.5a2.92,2.92,0,0,1-1.93-.65,2.78,2.78,0,0,1-1-1.7,3.86,3.86,0,0,1,.34-2.19l2.67-5.77v2.87L239.5,18.49a4,4,0,0,1-.34-2.25,2.54,2.54,0,0,1,1.06-1.65,4,4,0,0,1,2.39-.64,3.19,3.19,0,0,1,2,.6,5.64,5.64,0,0,1,1.43,2.27l4,10.35H248.7l4.22-10.39a4.94,4.94,0,0,1,1.45-2.23,3.67,3.67,0,0,1,2.21-.6,2.66,2.66,0,0,1,2.81,2.29,3.67,3.67,0,0,1-.42,2.25L250,38.8a4.69,4.69,0,0,1-1.57,2.13A4,4,0,0,1,246.19,41.5Z" transform="translate(-1.59 -5.47)"/><path class="cls-3" d="M271.47,34.42a12.43,12.43,0,0,1-5.69-1.24A9,9,0,0,1,262,29.62a10.62,10.62,0,0,1-1.36-5.47,11.3,11.3,0,0,1,.76-4.28,8.81,8.81,0,0,1,2.19-3.25A9.5,9.5,0,0,1,267,14.57a13.59,13.59,0,0,1,4.46-.7,12.43,12.43,0,0,1,5.69,1.24,8.89,8.89,0,0,1,3.77,3.54,10.8,10.8,0,0,1,1.33,5.5,11.11,11.11,0,0,1-.76,4.25,9.15,9.15,0,0,1-2.19,3.25,9.26,9.26,0,0,1-3.42,2.07A13.44,13.44,0,0,1,271.47,34.42Zm0-5.3a3.47,3.47,0,0,0,1.89-.5,3.34,3.34,0,0,0,1.3-1.61,7.49,7.49,0,0,0,.47-2.86,5.8,5.8,0,0,0-1-3.85,3.36,3.36,0,0,0-2.63-1.17,3.51,3.51,0,0,0-1.91.52,3.39,3.39,0,0,0-1.31,1.61,7.28,7.28,0,0,0-.48,2.89,5.7,5.7,0,0,0,1,3.8A3.4,3.4,0,0,0,271.47,29.12Z" transform="translate(-1.59 -5.47)"/><path class="cls-3" d="M289.07,34.34a3.52,3.52,0,0,1-2.65-.94,3.65,3.65,0,0,1-.9-2.65V17.54a3.67,3.67,0,0,1,.9-2.65A3.41,3.41,0,0,1,289,14a3.36,3.36,0,0,1,2.53.94,3.71,3.71,0,0,1,.89,2.65v1.87L292,17.78a6.87,6.87,0,0,1,2.73-2.89,8,8,0,0,1,4-1,7.26,7.26,0,0,1,3.86.94,5.62,5.62,0,0,1,2.27,2.79,12.56,12.56,0,0,1,.76,4.75v8.4a3.62,3.62,0,0,1-.92,2.65,4.14,4.14,0,0,1-5.25,0,3.62,3.62,0,0,1-.92-2.65V22.63a4,4,0,0,0-.62-2.53,2.18,2.18,0,0,0-1.81-.77,3.33,3.33,0,0,0-2.54,1,3.82,3.82,0,0,0-1,2.73v7.68Q292.61,34.34,289.07,34.34Z" transform="translate(-1.59 -5.47)"/><path class="cls-3" d="M320.36,34.42a14,14,0,0,1-6.19-1.28,9.3,9.3,0,0,1-4-3.58,10.26,10.26,0,0,1-1.4-5.41,10.48,10.48,0,0,1,1.34-5.34,9.57,9.57,0,0,1,3.66-3.62,11.37,11.37,0,0,1,9.3-.6,8.38,8.38,0,0,1,3,2.05A9.09,9.09,0,0,1,328,19.85a12.33,12.33,0,0,1,.68,4.22,1.48,1.48,0,0,1-.44,1.15,1.93,1.93,0,0,1-1.35.4H314.71V22.23h8.79l-.59.52a6.34,6.34,0,0,0-.4-2.41A2.86,2.86,0,0,0,321.33,19a3.78,3.78,0,0,0-1.93-.46,3.91,3.91,0,0,0-2.15.58,3.46,3.46,0,0,0-1.37,1.69,7.26,7.26,0,0,0-.46,2.79v.32c0,1.91.42,3.26,1.26,4.06a5.48,5.48,0,0,0,3.88,1.19,11.16,11.16,0,0,0,2-.2,12,12,0,0,0,2.17-.59,2.54,2.54,0,0,1,1.79-.14,2.27,2.27,0,0,1,1.17.85,2.77,2.77,0,0,1,.48,1.42,2.59,2.59,0,0,1-.36,1.53,2.67,2.67,0,0,1-1.37,1.11,13.45,13.45,0,0,1-2.93,1A15.36,15.36,0,0,1,320.36,34.42Z" transform="translate(-1.59 -5.47)"/></g></g></svg>